<?xml version="1.0" encoding="utf-8"?>
<!-- Generator: Adobe Illustrator 24.1.1, SVG Export Plug-In . SVG Version: 6.00 Build 0)  -->
<svg version="1.1" id="Layer_1" xmlns="http://www.w3.org/2000/svg" xmlns:xlink="http://www.w3.org/1999/xlink" x="0px" y="0px"
	 viewBox="0 0 510 424" style="enable-background:new 0 0 510 424;" xml:space="preserve">
<style type="text/css">
	.st0{clip-path:url(#SVGID_2_);}
	.st1{fill:#021216;}
	.st2{opacity:0.2;}
	.st3{filter:url(#Adobe_OpacityMaskFilter);}
	.st4{mask:url(#SVGID_3_);}
	.st5{fill:#FFFFFF;}
	.st6{opacity:0.7;}
	.st7{opacity:0.5;}
	.st8{opacity:5.000000e-02;}
	.st9{fill:#49CEBB;}
	.st10{fill:#48BFC7;}
	.st11{opacity:0.25;}
	.st12{opacity:0.8;}
	.st13{filter:url(#Adobe_OpacityMaskFilter_1_);}
	.st14{mask:url(#SVGID_4_);}
	.st15{fill:#ABF7FF;}
	.st16{opacity:0.1;}
</style>
<g>
	<defs>
		<rect id="SVGID_1_" width="510" height="424"/>
	</defs>
	<clipPath id="SVGID_2_">
		<use xlink:href="#SVGID_1_"  style="overflow:visible;"/>
	</clipPath>
	<g class="st0">
		<g>
			<rect y="0" class="st1" width="510" height="424"/>
		</g>
		<g class="st2">
			<defs>
				<filter id="Adobe_OpacityMaskFilter" filterUnits="userSpaceOnUse" x="-0.7" y="-38.1" width="511.3" height="511.3">
					<feFlood  style="flood-color:white;flood-opacity:1" result="back"/>
					<feBlend  in="SourceGraphic" in2="back" mode="normal"/>
				</filter>
			</defs>
			<mask maskUnits="userSpaceOnUse" x="-0.7" y="-38.1" width="511.3" height="511.3" id="SVGID_3_">
				<g class="st3">
					<image style="overflow:visible;" width="516" height="517" xlink:href="7B631B1F.jpg"  transform="matrix(1 0 0 1 -3 -41)">
					</image>
				</g>
			</mask>
			<g class="st4">
				<g>
					<circle class="st5" cx="255" cy="217.5" r="255.6"/>
				</g>
			</g>
		</g>
		<g class="st6">
			<g>
				<path class="st5" d="M473,36c0,3-2.5,5.5-5.5,5.5c-3,0-5.5-2.5-5.5-5.5c0-3,2.5-5.5,5.5-5.5C470.5,30.5,473,32.9,473,36z"/>
			</g>
			<g>
				<path class="st5" d="M127.6,46.7c0,1.5-1.2,2.8-2.8,2.8c-1.5,0-2.8-1.2-2.8-2.8c0-1.5,1.2-2.8,2.8-2.8
					C126.4,44,127.6,45.2,127.6,46.7z"/>
			</g>
			<g class="st7">
				<path class="st5" d="M381.4,388.5c0,3-2.5,5.5-5.5,5.5s-5.5-2.5-5.5-5.5c0-3,2.5-5.5,5.5-5.5S381.4,385.5,381.4,388.5z"/>
			</g>
			<g class="st2">
				<circle class="st5" cx="277.5" cy="78.8" r="5.5"/>
			</g>
			<g class="st2">
				
					<ellipse transform="matrix(0.7071 -0.7071 0.7071 0.7071 -233.2262 237.0937)" class="st5" cx="169.6" cy="400.1" rx="11" ry="11"/>
			</g>
			<g class="st8">
				<ellipse transform="matrix(0.923 -0.3848 0.3848 0.923 -4.8206 19.2897)" class="st5" cx="45.8" cy="21.7" rx="8.8" ry="8.8"/>
			</g>
		</g>
	</g>
	<g class="st0">
		<path class="st9" d="M508,2v420H2V2H508 M510,0H0v424h510V0L510,0z"/>
	</g>
	<g class="st0">
		<g>
			<g>
				<path class="st9" d="M397.5,221H112.5c-0.8,0-1.5-0.7-1.5-1.5v-25.9c0-0.8,0.7-1.5,1.5-1.5h284.9c0.8,0,1.5,0.7,1.5,1.5v25.9
					C399,220.3,398.3,221,397.5,221z"/>
			</g>
		</g>
		<g>
			<g>
				<g>
					<path class="st1" d="M118,203.5v-2h2v2H118z M118,211.5v-2h2v2H118z M120,201.5v-2h6v2H120z M120,213.5v-2h6v2H120z M122,207.5
						v-2h4v2H122z M126,205.5v-4h2v4H126z M126,211.5v-4h2v4H126z"/>
				</g>
			</g>
			<g>
				<g>
					<path class="st1" d="M134,213.5v-14h10v2h-8v4h6v2h-6v4h8v2H134z"/>
				</g>
			</g>
			<g>
				<g>
					<path class="st1" d="M146,203.5v-4h2v4H146z M146,213.5v-4h2v4H146z M148,205.5v-2h2v2H148z M148,209.5v-2h2v2H148z M150,207.5
						v-2h2v2H150z M152,205.5v-2h2v2H152z M152,209.5v-2h2v2H152z M154,203.5v-4h2v4H154z M154,213.5v-4h2v4H154z"/>
				</g>
			</g>
			<g>
				<g>
					<path class="st1" d="M158,211.5v-10h2v10H158z M160,201.5v-2h6v2H160z M160,213.5v-2h6v2H160z M166,203.5v-2h2v2H166z
						 M166,211.5v-2h2v2H166z"/>
				</g>
			</g>
			<g>
				<g>
					<path class="st1" d="M170,213.5v-2h4v-10h-4v-2h10v2h-4v10h4v2H170z"/>
				</g>
			</g>
			<g>
				<g>
					<path class="st1" d="M186,213.5v-12h-4v-2h10v2h-4v12H186z"/>
				</g>
			</g>
			<g>
				<g>
					<path class="st1" d="M194,213.5v-2h4v-10h-4v-2h10v2h-4v10h4v2H194z"/>
				</g>
			</g>
			<g>
				<g>
					<path class="st1" d="M206,213.5v-14h2v2h2v2h-2v10H206z M210,205.5v-2h2v2H210z M214,213.5v-6h-2v-2h2v-6h2v14H214z"/>
				</g>
			</g>
			<g>
				<g>
					<path class="st1" d="M218,211.5v-10h2v10H218z M220,201.5v-2h6v2H220z M220,213.5v-2h6v2H220z M226,211.5v-2h-4v-2h6v4H226z
						 M226,203.5v-2h2v2H226z"/>
				</g>
			</g>
			<g>
				<g>
					<path class="st1" d="M234,213.5v-14h2v12h8v2H234z"/>
				</g>
			</g>
			<g>
				<g>
					<path class="st1" d="M246,213.5v-2h4v-10h-4v-2h10v2h-4v10h4v2H246z"/>
				</g>
			</g>
			<g>
				<g>
					<path class="st1" d="M258,213.5v-14h10v2h-8v4h6v2h-6v6H258z"/>
				</g>
			</g>
			<g>
				<g>
					<path class="st1" d="M270,213.5v-14h10v2h-8v4h6v2h-6v4h8v2H270z"/>
				</g>
			</g>
			<g>
				<g>
					<path class="st1" d="M286,213.5v-12h-4v-2h10v2h-4v12H286z"/>
				</g>
			</g>
			<g>
				<g>
					<path class="st1" d="M294,213.5v-2h4v-10h-4v-2h10v2h-4v10h4v2H294z"/>
				</g>
			</g>
			<g>
				<g>
					<path class="st1" d="M306,213.5v-14h2v2h2v2h-2v10H306z M310,205.5v-2h2v2H310z M314,213.5v-10h-2v-2h2v-2h2v14H314z"/>
				</g>
			</g>
			<g>
				<g>
					<path class="st1" d="M318,213.5v-14h10v2h-8v4h6v2h-6v4h8v2H318z"/>
				</g>
			</g>
			<g>
				<g>
					<path class="st1" d="M334,213.5v-14h8v2h-6v10h6v2H334z M342,211.5v-10h2v10H342z"/>
				</g>
			</g>
			<g>
				<g>
					<path class="st1" d="M346,213.5v-14h10v2h-8v4h6v2h-6v4h8v2H346z"/>
				</g>
			</g>
			<g>
				<g>
					<path class="st1" d="M358,213.5v-12h2v4h6v-4h2v12h-2v-6h-6v6H358z M360,201.5v-2h6v2H360z"/>
				</g>
			</g>
			<g>
				<g>
					<path class="st1" d="M370,213.5v-14h2v12h8v2H370z"/>
				</g>
			</g>
			<g>
				<g>
					<path class="st1" d="M382,205.5v-4h2v4H382z M382,211.5v-2h2v2H382z M384,201.5v-2h6v2H384z M384,207.5v-2h6v2H384z M384,213.5
						v-2h6v2H384z M390,203.5v-2h2v2H390z M390,211.5v-4h2v4H390z"/>
				</g>
			</g>
		</g>
		<g>
			<g>
				<rect x="189.5" y="346.6" class="st9" width="131" height="34.2"/>
			</g>
		</g>
		<g>
			<g>
				<path d="M208.9,362.4L208.9,362.4c0-3.2,2.5-5.5,5.8-5.5c1.8,0,3.3,0.6,4.4,1.6l-2,2.4c-0.7-0.6-1.5-0.9-2.3-0.9
					c-1.4,0-2.4,1-2.4,2.5v0c0,1.5,1,2.5,2.5,2.5c0.6,0,0.9-0.1,1.2-0.2v-1h-1.8v-2.3h5.1v4.9c-1.1,0.9-2.7,1.6-4.6,1.6
					C211.5,367.8,208.9,365.6,208.9,362.4z"/>
			</g>
			<g>
				<path d="M220.5,357.1h5.1c1.9,0,3,0.5,3.8,1.2c0.6,0.6,1,1.4,1,2.5v0c0,1.5-0.8,2.6-2.1,3.2l2.4,3.6h-4l-2-3H224v3h-3.5V357.1z
					 M225.5,362.1c0.8,0,1.3-0.4,1.3-1v0c0-0.7-0.5-1-1.3-1H224v2.1H225.5z"/>
			</g>
			<g>
				<path d="M234.5,357h3.5l4.4,10.6h-3.8l-0.6-1.4h-3.7l-0.5,1.4H230L234.5,357z M237.1,363.7l-1-2.6l-1,2.6H237.1z"/>
			</g>
			<g>
				<path d="M242.8,357.1h5.9c1.5,0,2.4,0.3,3,0.9c0.4,0.4,0.6,0.9,0.6,1.6v0c0,1.2-0.8,2-1.9,2.4c1.4,0.4,2.2,1.1,2.2,2.6v0
					c0,1.7-1.4,2.9-4,2.9h-5.8V357.1z M247.8,361.2c0.8,0,1.1-0.3,1.1-0.7v0c0-0.5-0.4-0.7-1.1-0.7h-1.5v1.5H247.8z M248,364.9
					c0.8,0,1.2-0.3,1.2-0.8v0c0-0.4-0.4-0.8-1.1-0.8h-1.8v1.6H248z"/>
			</g>
			<g>
				<path d="M257.2,357.1h3.3l3.7,4.6v-4.6h3.5v10.5h-3.1l-3.9-4.8v4.8h-3.5V357.1z"/>
			</g>
			<g>
				<path d="M268.7,362.4L268.7,362.4c0-3.1,2.5-5.5,5.7-5.5c3.2,0,5.7,2.4,5.7,5.4v0c0,3-2.5,5.5-5.7,5.5
					C271.2,367.8,268.7,365.4,268.7,362.4z M276.6,362.4L276.6,362.4c0-1.3-0.9-2.4-2.2-2.4c-1.3,0-2.2,1.1-2.2,2.3v0
					c0,1.2,0.9,2.4,2.2,2.4C275.8,364.7,276.6,363.6,276.6,362.4z"/>
			</g>
			<g>
				<path d="M279.9,357.1h3.7l1.5,5l1.7-5.1h3l1.7,5.1l1.5-5h3.6l-3.4,10.6h-3.1l-1.8-5.2l-1.8,5.2h-3.1L279.9,357.1z"/>
			</g>
			<g>
				<path d="M297.1,359.3v-2.3h3.8v2.3l-1,5h-1.7L297.1,359.3z M297.3,364.9h3.5v2.7h-3.5V364.9z"/>
			</g>
		</g>
		<g class="st7">
			<g>
				<g>
					<g>
						<path class="st10" d="M330.7,167c0,1-0.8,1.9-1.9,1.9c-1,0-1.9-0.8-1.9-1.9c0-1,0.8-1.9,1.9-1.9
							C329.8,165.2,330.7,166,330.7,167z"/>
					</g>
				</g>
				<g>
					<g>
						<path class="st10" d="M330.7,118.2c0,1-0.8,1.9-1.9,1.9c-1,0-1.9-0.8-1.9-1.9c0-1,0.8-1.9,1.9-1.9
							C329.8,116.3,330.7,117.1,330.7,118.2z"/>
					</g>
				</g>
			</g>
			<g>
				<g>
					<g>
						<path class="st10" d="M183.1,167c0,1-0.8,1.9-1.9,1.9c-1,0-1.9-0.8-1.9-1.9c0-1,0.8-1.9,1.9-1.9
							C182.2,165.2,183.1,166,183.1,167z"/>
					</g>
				</g>
				<g>
					<g>
						<path class="st10" d="M183.1,118.2c0,1-0.8,1.9-1.9,1.9c-1,0-1.9-0.8-1.9-1.9c0-1,0.8-1.9,1.9-1.9
							C182.2,116.3,183.1,117.1,183.1,118.2z"/>
					</g>
				</g>
			</g>
		</g>
		<g>
			<g>
				<path class="st9" d="M195.2,86.4c0,2.9-0.5,5.3-1.6,7.2c-1.1,1.9-2.5,3.4-4.3,4.5c-1.8,1.1-4,1.9-6.6,2.3
					c-2.5,0.4-5.3,0.7-8.3,0.7c-2.4,0-4.5-0.1-6.4-0.3c-1.9-0.2-3.9-0.4-6.1-0.7V53c1.7-0.3,3.5-0.5,5.5-0.7c2-0.2,4.3-0.3,6.9-0.3
					c2.5,0,4.8,0.2,7,0.6c2.2,0.4,4.1,1.1,5.7,2.1c1.6,1,2.9,2.3,3.9,4c0.9,1.6,1.4,3.7,1.4,6.2c0,2.1-0.5,3.9-1.4,5.6
					c-0.9,1.7-2.1,3-3.5,3.9c1,0.4,2,0.9,2.9,1.5c0.9,0.6,1.8,1.4,2.5,2.4c0.7,0.9,1.3,2.1,1.7,3.4C195,83.1,195.2,84.7,195.2,86.4z
					 M173.3,71h1.8c1.9,0,3.4-0.4,4.4-1.2c1.1-0.8,1.6-2.1,1.6-4c0-0.9-0.2-1.7-0.6-2.3c-0.4-0.6-0.8-1.1-1.4-1.4
					c-0.6-0.4-1.2-0.6-1.9-0.7c-0.7-0.1-1.4-0.2-2-0.2c-0.3,0-0.6,0-1,0c-0.4,0-0.7,0-1,0.1V71z M173.3,80.3v11.1
					c0.3,0,0.7,0.1,1.2,0.1c0.5,0,1.1,0,1.8,0c0.8,0,1.7-0.1,2.5-0.3c0.9-0.2,1.6-0.5,2.3-0.9c0.7-0.4,1.3-1,1.7-1.7
					c0.4-0.7,0.6-1.6,0.6-2.7c0-2.1-0.7-3.6-2.1-4.4c-1.4-0.8-3.2-1.2-5.4-1.2H173.3z"/>
				<path class="st9" d="M174.4,103.5c-2.4,0-4.7-0.1-6.6-0.3c-1.9-0.2-4-0.4-6.2-0.7l-2.2-0.3V50.8l2.1-0.3
					c1.7-0.3,3.6-0.5,5.6-0.7c2-0.2,4.4-0.3,7.1-0.3c2.6,0,5.2,0.2,7.5,0.7c2.5,0.5,4.7,1.3,6.5,2.4c2,1.2,3.6,2.8,4.7,4.8
					c1.2,2,1.7,4.5,1.7,7.5c0,2.5-0.6,4.8-1.7,6.8c-0.4,0.8-0.9,1.5-1.4,2.2c0,0,0,0,0.1,0c1.2,0.8,2.2,1.8,3.1,2.9
					c0.9,1.2,1.6,2.5,2.1,4.1c0.5,1.6,0.8,3.4,0.8,5.3c0,3.3-0.6,6.1-1.9,8.4c-1.3,2.3-3,4.1-5.3,5.4c-2.1,1.3-4.6,2.1-7.4,2.6
					C180.5,103.2,177.5,103.5,174.4,103.5z M164.4,97.8c1.3,0.2,2.6,0.3,3.9,0.4c1.8,0.2,3.9,0.3,6.2,0.3c2.8,0,5.5-0.2,7.9-0.6
					c2.2-0.4,4.2-1.1,5.7-2c1.5-0.9,2.6-2,3.4-3.5c0.8-1.5,1.3-3.5,1.3-6c0-1.4-0.2-2.7-0.5-3.8c-0.3-1-0.8-1.9-1.4-2.7
					c-0.6-0.7-1.2-1.3-1.9-1.8c-0.8-0.5-1.6-1-2.4-1.3l-4.5-1.8l4-2.7c1.1-0.7,1.9-1.7,2.7-3c0.7-1.3,1.1-2.8,1.1-4.4
					c0-2-0.4-3.7-1.1-5c-0.7-1.3-1.7-2.3-3-3.1c-1.4-0.8-3-1.4-4.9-1.8c-2-0.4-4.2-0.6-6.5-0.6c-2.5,0-4.8,0.1-6.7,0.3
					c-1.1,0.1-2.2,0.2-3.2,0.3V97.8z M176.3,94c-0.8,0-1.4,0-1.9,0c-0.5,0-1-0.1-1.4-0.1l-2.1-0.3V77.8h5.2c2.6,0,4.9,0.5,6.6,1.6
					c1.5,0.9,3.3,2.7,3.3,6.5c0,1.5-0.3,2.9-1,4c-0.6,1.1-1.5,2-2.6,2.6c-0.9,0.6-2,1-3.1,1.2C178.3,93.9,177.3,94,176.3,94z
					 M175.8,89c0.8,0,1.6,0,2.5-0.2c0.6-0.1,1.1-0.3,1.6-0.6c0.3-0.2,0.6-0.5,0.8-0.8c0.2-0.3,0.3-0.8,0.3-1.5
					c0-1.7-0.6-2.1-0.8-2.2c-1-0.6-2.4-0.9-4.1-0.9h-0.2V89z M175.2,73.5h-4.3V59.1l2.1-0.3c0.4-0.1,0.9-0.1,1.4-0.1h1
					c0.8,0,1.6,0.1,2.5,0.2c1,0.2,1.9,0.5,2.8,1.1c0.9,0.6,1.7,1.3,2.2,2.3c0.6,1,0.9,2.2,0.9,3.6c0,3.4-1.4,5.1-2.6,6
					C179.6,72.9,177.6,73.5,175.2,73.5z M175.8,63.7v4.8c1-0.1,1.8-0.3,2.3-0.7c0.5-0.4,0.6-1.4,0.6-2c0-0.4-0.1-0.8-0.2-1
					c-0.2-0.3-0.4-0.5-0.6-0.6c-0.3-0.2-0.7-0.3-1.1-0.4C176.5,63.7,176.1,63.7,175.8,63.7z"/>
			</g>
			<g>
				<path class="st9" d="M201.2,53c1.2-0.2,2.3-0.3,3.2-0.4c1-0.1,1.8-0.1,2.6-0.1c0.8,0,1.7,0,2.7,0.1c1,0.1,2.1,0.2,3.2,0.4v36.9
					h15.2c0.2,1.1,0.4,2.1,0.4,2.9c0.1,0.8,0.1,1.5,0.1,2.2c0,0.7,0,1.5-0.1,2.3c-0.1,0.8-0.2,1.8-0.4,2.9h-26.9V53z"/>
				<path class="st9" d="M230.2,102.7h-31.4V50.8l2.1-0.3c1.2-0.2,2.3-0.3,3.4-0.4c1-0.1,2-0.1,2.8-0.1c0.9,0,1.8,0,2.9,0.1
					c1,0.1,2.2,0.2,3.4,0.4l2.1,0.3v36.5h14.8l0.4,2c0.2,1.2,0.4,2.2,0.5,3.2c0.1,0.9,0.1,1.7,0.1,2.4c0,0.8,0,1.7-0.1,2.5
					c-0.1,0.9-0.2,2-0.5,3.2L230.2,102.7z M203.7,97.7H226c0-0.2,0-0.4,0.1-0.6c0.1-0.7,0.1-1.5,0.1-2.1c0-0.6,0-1.3-0.1-2
					c0-0.2,0-0.4-0.1-0.6h-15.6V55.2c-0.3,0-0.6-0.1-0.9-0.1c-0.9-0.1-1.7-0.1-2.4-0.1c-0.7,0-1.5,0-2.3,0.1c-0.3,0-0.6,0.1-1,0.1
					V97.7z"/>
			</g>
			<g>
				<path class="st9" d="M241.3,100.1c-1,0.2-1.9,0.3-2.8,0.4c-0.8,0.1-1.6,0.1-2.4,0.1c-0.8,0-1.7-0.1-2.7-0.2
					c-1-0.1-2.2-0.3-3.5-0.5l14.8-47c1.1-0.1,2.2-0.2,3.2-0.3c1-0.1,2-0.1,3-0.1c0.8,0,1.7,0,2.7,0.1c1,0.1,2.1,0.2,3.4,0.3
					l14.6,47.1c-2.5,0.4-4.7,0.6-6.6,0.6c-0.9,0-1.8,0-2.6-0.1c-0.9-0.1-1.8-0.2-2.8-0.4l-2.5-9.2c-1.2,0.4-2.4,0.6-3.5,0.8
					c-1.1,0.2-2.2,0.3-3.3,0.3c-1,0-2-0.1-3.1-0.2c-1.1-0.2-2.2-0.4-3.3-0.7L241.3,100.1z M250.6,65.3l-4.4,16.9
					c0.7,0.2,1.4,0.4,2.1,0.5c0.7,0.1,1.3,0.2,2,0.2c0.7,0,1.5-0.1,2.2-0.2c0.7-0.1,1.5-0.3,2.3-0.5L250.6,65.3z"/>
				<path class="st9" d="M265,103.1c-1,0-1.9,0-2.9-0.1c-0.9-0.1-1.9-0.2-3-0.4l-1.6-0.3l-2.3-8.3c-0.5,0.1-0.9,0.2-1.4,0.2
					c-2.4,0.4-4.7,0.4-7.2,0c-0.4-0.1-0.8-0.1-1.1-0.2l-2.2,8.2l-1.6,0.3c-1.1,0.2-2,0.3-2.9,0.4c-0.9,0.1-1.8,0.1-2.7,0.1
					c-0.9,0-1.9-0.1-3-0.2c-1.1-0.1-2.3-0.3-3.6-0.5l-2.8-0.5l16.1-51.3l1.6-0.2c1.2-0.1,2.2-0.2,3.3-0.3c2-0.2,3.9-0.2,6.2,0
					c1,0.1,2.1,0.2,3.4,0.3l1.6,0.2l15.9,51.4l-2.9,0.5C269.3,102.9,267,103.1,265,103.1z M261.5,97.8c0.4,0.1,0.7,0.1,1.1,0.1
					c1.8,0.2,3.5,0.2,5.7-0.1l-13.2-42.7c-0.6-0.1-1.2-0.1-1.7-0.2c-2-0.2-3.6-0.1-5.3,0c-0.5,0-1,0.1-1.5,0.1l-13.4,42.7
					c0.2,0,0.3,0,0.5,0.1c1.9,0.2,3.2,0.2,4.6,0c0.3,0,0.7-0.1,1-0.1L242,88l2.4,0.7c1,0.3,2.1,0.5,3,0.6c1.9,0.3,3.8,0.3,5.7,0
					c1-0.2,2.1-0.4,3.2-0.7l2.4-0.7L261.5,97.8z M250.3,85.4c-0.9,0-1.7-0.1-2.5-0.2c-0.7-0.1-1.5-0.3-2.3-0.6l-2.3-0.7l7.5-28.8
					l7.2,28.9l-2.3,0.7c-0.9,0.2-1.7,0.4-2.6,0.6C252,85.4,251.2,85.4,250.3,85.4z M249.2,80.4c0.8,0.1,1.7,0.1,2.5,0l-1.2-4.9
					L249.2,80.4z"/>
			</g>
			<g>
				<path class="st9" d="M285.3,76.6c0,9.3,3.9,14,11.7,14c1.4,0,2.7-0.1,4-0.4s2.8-0.7,4.6-1.3c1.4,3.2,2.4,6.4,2.9,9.7
					c-1.3,0.5-2.5,0.9-3.6,1.2c-1.1,0.3-2.2,0.5-3.2,0.7c-1,0.2-2,0.3-3,0.3c-1,0.1-2,0.1-3.1,0.1c-3.7,0-7-0.6-9.8-1.8
					c-2.8-1.2-5.2-2.9-7.1-5c-1.9-2.1-3.3-4.7-4.3-7.7c-1-3-1.4-6.2-1.4-9.7c0-3.5,0.5-6.8,1.5-9.8c1-3,2.5-5.6,4.4-7.8
					c1.9-2.2,4.3-3.9,7.1-5.1c2.8-1.2,6-1.8,9.5-1.8c2.1,0,4.1,0.2,6,0.5c1.9,0.3,4,0.9,6.3,1.8c-0.1,1.8-0.4,3.5-1,5.2
					c-0.6,1.7-1.2,3.2-1.8,4.4c-0.9-0.3-1.7-0.6-2.4-0.8c-0.7-0.2-1.4-0.4-2.1-0.5s-1.3-0.2-2-0.3s-1.4-0.1-2.1-0.1
					c-3.6,0-6.3,1.2-8.3,3.6C286.2,68.3,285.3,71.9,285.3,76.6z"/>
				<path class="st9" d="M295.7,103.4c-4.1,0-7.7-0.7-10.8-2c-3.2-1.3-5.9-3.3-8-5.7c-2.1-2.4-3.8-5.3-4.8-8.6
					c-1-3.2-1.6-6.8-1.6-10.5c0-3.8,0.6-7.3,1.6-10.6c1.1-3.3,2.7-6.2,4.9-8.6c2.1-2.5,4.8-4.4,8-5.8c3.1-1.4,6.7-2.1,10.5-2.1
					c2.2,0,4.4,0.2,6.4,0.5c2.1,0.3,4.4,1,6.8,2l1.7,0.7l-0.1,1.8c-0.1,2-0.5,4-1.1,5.9c-0.6,1.8-1.2,3.4-1.9,4.7l-1,2l-2.1-0.7
					c-0.8-0.3-1.6-0.5-2.3-0.8c-0.6-0.2-1.3-0.4-1.8-0.5c-0.6-0.1-1.2-0.2-1.7-0.3c-0.6-0.1-1.2-0.1-1.9-0.1c-2.8,0-4.9,0.9-6.3,2.7
					c-1.6,1.9-2.4,5-2.4,9.1c0,10.2,4.9,11.5,9.2,11.5c1.2,0,2.4-0.1,3.5-0.3c1.1-0.2,2.6-0.7,4.3-1.2l2.1-0.7l0.9,2.1
					c1.5,3.4,2.6,6.9,3.1,10.4l0.3,2l-1.9,0.7c-1.3,0.5-2.6,0.9-3.8,1.3c-1.2,0.3-2.3,0.6-3.5,0.8c-1.1,0.2-2.2,0.3-3.2,0.4
					C297.9,103.4,296.8,103.4,295.7,103.4z M295.5,54.6c-3.2,0-6.1,0.5-8.5,1.6c-2.5,1.1-4.5,2.6-6.2,4.5c-1.7,1.9-3,4.3-3.9,7
					c-0.9,2.7-1.4,5.8-1.4,9c0,3.2,0.4,6.3,1.3,9c0.9,2.6,2.1,4.9,3.8,6.8c1.7,1.9,3.7,3.3,6.2,4.4c2.5,1.1,5.5,1.6,8.9,1.6
					c1,0,2,0,2.9-0.1c0.9-0.1,1.8-0.2,2.8-0.3c0.9-0.1,1.9-0.4,2.9-0.6c0.4-0.1,0.9-0.3,1.4-0.4c-0.4-1.7-0.9-3.4-1.5-5
					c-1,0.3-1.9,0.5-2.6,0.7c-1.4,0.3-2.9,0.4-4.5,0.4c-5.3,0-14.2-2.1-14.2-16.5c0-5.3,1.2-9.4,3.5-12.3c2.4-3,5.9-4.5,10.2-4.5
					c0.8,0,1.6,0,2.4,0.1c0.7,0.1,1.5,0.2,2.2,0.3c0.7,0.1,1.5,0.3,2.3,0.6c0.1,0,0.2,0.1,0.3,0.1c0.3-0.7,0.5-1.4,0.8-2.2
					c0.3-0.9,0.5-1.8,0.7-2.8c-1.5-0.5-2.8-0.9-4-1.1C299.3,54.7,297.4,54.6,295.5,54.6z"/>
			</g>
			<g>
				<path class="st9" d="M314.3,53c1.2-0.2,2.3-0.3,3.2-0.4c1-0.1,1.8-0.1,2.6-0.1c0.8,0,1.7,0,2.7,0.1c1,0.1,2.1,0.2,3.2,0.4v47
					c-2.3,0.4-4.3,0.6-5.8,0.6c-1.6,0-3.6-0.2-5.9-0.6V53z M339.7,75.7L352,100c-0.7,0.2-1.7,0.3-3,0.4c-1.3,0.1-2.4,0.2-3.4,0.2
					c-1.3,0-2.5-0.1-3.7-0.2c-1.2-0.1-2.2-0.3-3-0.4l-12.1-23.7L338,53c1.3-0.2,2.5-0.4,3.4-0.4c1-0.1,2-0.1,3-0.1c0.5,0,1,0,1.6,0
					c0.6,0,1.2,0.1,1.8,0.1s1.2,0.1,1.7,0.2c0.5,0.1,1,0.1,1.4,0.2L339.7,75.7z"/>
				<path class="st9" d="M345.6,103.1c-1.3,0-2.7-0.1-3.9-0.2c-1.3-0.1-2.4-0.3-3.3-0.5l-1.2-0.2l-8.8-17.3v17.2l-2.1,0.4
					c-2.5,0.4-4.5,0.6-6.2,0.6c-1.8,0-3.9-0.2-6.3-0.6l-2.1-0.4V50.8l2.1-0.3c1.2-0.2,2.3-0.3,3.4-0.4c1-0.1,2-0.1,2.8-0.1
					c0.9,0,1.8,0,2.9,0.1c1,0.1,2.2,0.2,3.4,0.4l2.1,0.3v16.3l7.9-16.5l1.3-0.2c1.4-0.2,2.6-0.4,3.7-0.5c1-0.1,2.1-0.1,3.1-0.1
					c0.5,0,1.1,0,1.7,0c0.7,0,1.4,0.1,2,0.1c0.6,0.1,1.2,0.1,1.7,0.2c0.5,0.1,1,0.1,1.4,0.2l3.6,0.4l-12.3,24.8l13.2,26l-3.1,0.7
					c-0.9,0.2-2,0.4-3.4,0.5C347.9,103,346.7,103.1,345.6,103.1z M340.6,97.7c0.5,0.1,1,0.1,1.6,0.2c1.1,0.1,2.3,0.2,3.5,0.2
					c0.8,0,1.6,0,2.6-0.1l-11.3-22.3l10.2-20.6c-0.4,0-0.8-0.1-1.2-0.1c-0.6,0-1.1,0-1.6,0c-1,0-1.9,0-2.8,0.1
					c-0.6,0-1.2,0.1-1.9,0.2l-10,21L340.6,97.7z M316.8,97.8c1.3,0.2,2.4,0.2,3.4,0.2c0.9,0,2-0.1,3.3-0.2V55.2
					c-0.3,0-0.6-0.1-0.9-0.1c-0.9-0.1-1.7-0.1-2.4-0.1c-0.7,0-1.5,0-2.3,0.1c-0.3,0-0.6,0.1-1,0.1V97.8z"/>
			</g>
		</g>
		<g>
			<g>
				<path class="st1" d="M195.2,86.4c0,2.9-0.5,5.3-1.6,7.2c-1.1,1.9-2.5,3.4-4.3,4.5c-1.8,1.1-4,1.9-6.6,2.3
					c-2.5,0.4-5.3,0.7-8.3,0.7c-2.4,0-4.5-0.1-6.4-0.3c-1.9-0.2-3.9-0.4-6.1-0.7V53c1.7-0.3,3.5-0.5,5.5-0.7c2-0.2,4.3-0.3,6.9-0.3
					c2.5,0,4.8,0.2,7,0.6c2.2,0.4,4.1,1.1,5.7,2.1c1.6,1,2.9,2.3,3.9,4c0.9,1.6,1.4,3.7,1.4,6.2c0,2.1-0.5,3.9-1.4,5.6
					c-0.9,1.7-2.1,3-3.5,3.9c1,0.4,2,0.9,2.9,1.5c0.9,0.6,1.8,1.4,2.5,2.4c0.7,0.9,1.3,2.1,1.7,3.4C195,83.1,195.2,84.7,195.2,86.4z
					 M173.3,71h1.8c1.9,0,3.4-0.4,4.4-1.2c1.1-0.8,1.6-2.1,1.6-4c0-0.9-0.2-1.7-0.6-2.3c-0.4-0.6-0.8-1.1-1.4-1.4
					c-0.6-0.4-1.2-0.6-1.9-0.7c-0.7-0.1-1.4-0.2-2-0.2c-0.3,0-0.6,0-1,0c-0.4,0-0.7,0-1,0.1V71z M173.3,80.3v11.1
					c0.3,0,0.7,0.1,1.2,0.1c0.5,0,1.1,0,1.8,0c0.8,0,1.7-0.1,2.5-0.3c0.9-0.2,1.6-0.5,2.3-0.9c0.7-0.4,1.3-1,1.7-1.7
					c0.4-0.7,0.6-1.6,0.6-2.7c0-2.1-0.7-3.6-2.1-4.4c-1.4-0.8-3.2-1.2-5.4-1.2H173.3z"/>
			</g>
			<g>
				<path class="st1" d="M201.2,53c1.2-0.2,2.3-0.3,3.2-0.4c1-0.1,1.8-0.1,2.6-0.1c0.8,0,1.7,0,2.7,0.1c1,0.1,2.1,0.2,3.2,0.4v36.9
					h15.2c0.2,1.1,0.4,2.1,0.4,2.9c0.1,0.8,0.1,1.5,0.1,2.2c0,0.7,0,1.5-0.1,2.3c-0.1,0.8-0.2,1.8-0.4,2.9h-26.9V53z"/>
			</g>
			<g>
				<path class="st1" d="M241.3,100.1c-1,0.2-1.9,0.3-2.8,0.4c-0.8,0.1-1.6,0.1-2.4,0.1c-0.8,0-1.7-0.1-2.7-0.2
					c-1-0.1-2.2-0.3-3.5-0.5l14.8-47c1.1-0.1,2.2-0.2,3.2-0.3c1-0.1,2-0.1,3-0.1c0.8,0,1.7,0,2.7,0.1c1,0.1,2.1,0.2,3.4,0.3
					l14.6,47.1c-2.5,0.4-4.7,0.6-6.6,0.6c-0.9,0-1.8,0-2.6-0.1c-0.9-0.1-1.8-0.2-2.8-0.4l-2.5-9.2c-1.2,0.4-2.4,0.6-3.5,0.8
					c-1.1,0.2-2.2,0.3-3.3,0.3c-1,0-2-0.1-3.1-0.2c-1.1-0.2-2.2-0.4-3.3-0.7L241.3,100.1z M250.6,65.3l-4.4,16.9
					c0.7,0.2,1.4,0.4,2.1,0.5c0.7,0.1,1.3,0.2,2,0.2c0.7,0,1.5-0.1,2.2-0.2c0.7-0.1,1.5-0.3,2.3-0.5L250.6,65.3z"/>
			</g>
			<g>
				<path class="st1" d="M285.3,76.6c0,9.3,3.9,14,11.7,14c1.4,0,2.7-0.1,4-0.4s2.8-0.7,4.6-1.3c1.4,3.2,2.4,6.4,2.9,9.7
					c-1.3,0.5-2.5,0.9-3.6,1.2c-1.1,0.3-2.2,0.5-3.2,0.7c-1,0.2-2,0.3-3,0.3c-1,0.1-2,0.1-3.1,0.1c-3.7,0-7-0.6-9.8-1.8
					c-2.8-1.2-5.2-2.9-7.1-5c-1.9-2.1-3.3-4.7-4.3-7.7c-1-3-1.4-6.2-1.4-9.7c0-3.5,0.5-6.8,1.5-9.8c1-3,2.5-5.6,4.4-7.8
					c1.9-2.2,4.3-3.9,7.1-5.1c2.8-1.2,6-1.8,9.5-1.8c2.1,0,4.1,0.2,6,0.5c1.9,0.3,4,0.9,6.3,1.8c-0.1,1.8-0.4,3.5-1,5.2
					c-0.6,1.7-1.2,3.2-1.8,4.4c-0.9-0.3-1.7-0.6-2.4-0.8c-0.7-0.2-1.4-0.4-2.1-0.5s-1.3-0.2-2-0.3s-1.4-0.1-2.1-0.1
					c-3.6,0-6.3,1.2-8.3,3.6C286.2,68.3,285.3,71.9,285.3,76.6z"/>
			</g>
			<g>
				<path class="st1" d="M314.3,53c1.2-0.2,2.3-0.3,3.2-0.4c1-0.1,1.8-0.1,2.6-0.1c0.8,0,1.7,0,2.7,0.1c1,0.1,2.1,0.2,3.2,0.4v47
					c-2.3,0.4-4.3,0.6-5.8,0.6c-1.6,0-3.6-0.2-5.9-0.6V53z M339.7,75.7L352,100c-0.7,0.2-1.7,0.3-3,0.4c-1.3,0.1-2.4,0.2-3.4,0.2
					c-1.3,0-2.5-0.1-3.7-0.2c-1.2-0.1-2.2-0.3-3-0.4l-12.1-23.7L338,53c1.3-0.2,2.5-0.4,3.4-0.4c1-0.1,2-0.1,3-0.1c0.5,0,1,0,1.6,0
					c0.6,0,1.2,0.1,1.8,0.1s1.2,0.1,1.7,0.2c0.5,0.1,1,0.1,1.4,0.2L339.7,75.7z"/>
			</g>
		</g>
		<g class="st2">
			<g>
				<g>
					<path class="st10" d="M186.4,56.7c-1.5-0.9-3.2-1.5-5.2-1.9c-2.1-0.4-4.3-0.6-6.7-0.6c-2.6,0-4.8,0.1-6.8,0.3
						c-1.4,0.1-2.7,0.3-4,0.4v3.3h24.5C187.7,57.6,187.1,57.1,186.4,56.7z"/>
				</g>
			</g>
			<g>
				<g>
					<path class="st10" d="M211.5,54.9v3.3H203v-3.3c0.6-0.1,1.2-0.1,1.8-0.2c0.9-0.1,1.7-0.1,2.4-0.1c0.7,0,1.6,0,2.5,0.1
						C210.3,54.7,210.9,54.8,211.5,54.9z"/>
				</g>
			</g>
			<g>
				<g>
					<path class="st10" d="M255.9,54.9c-0.8-0.1-1.6-0.2-2.3-0.2c-0.9-0.1-1.8-0.1-2.6-0.1c-1,0-1.9,0-2.9,0.1
						c-0.7,0.1-1.4,0.1-2.1,0.2l-1,3.3h11.9L255.9,54.9z"/>
				</g>
			</g>
			<g>
				<g>
					<path class="st10" d="M306.2,55.9c-0.1,0.8-0.2,1.5-0.4,2.2h-23c1.2-0.9,2.5-1.7,3.9-2.3c2.6-1.1,5.6-1.7,8.9-1.7
						c2,0,3.9,0.1,5.7,0.4C302.8,54.8,304.4,55.3,306.2,55.9z"/>
				</g>
			</g>
			<g>
				<g>
					<path class="st10" d="M347.8,54.7c-0.5-0.1-1.1-0.1-1.7-0.1c-0.6,0-1.1,0-1.6,0c-1,0-1.9,0-2.8,0.1c-0.7,0-1.5,0.1-2.4,0.3
						l-1.5,3.2h9.3l1.7-3.3C348.3,54.8,348.1,54.8,347.8,54.7z M322.7,54.7c-0.9-0.1-1.8-0.1-2.5-0.1c-0.7,0-1.5,0-2.4,0.1
						c-0.5,0-1.1,0.1-1.8,0.2v3.3h8.4v-3.3C323.8,54.8,323.3,54.7,322.7,54.7z"/>
				</g>
			</g>
		</g>
		<g class="st7">
			<g>
				<g>
					<g>
						<path class="st5" d="M167.7,53.7l5.3-0.4c1.8-0.2,3.6-0.2,5.3-0.1c1.8,0.1,3.6,0.4,5.3,1c1.7,0.6,3.4,1.4,4.8,2.6
							c1.4,1.2,2.5,2.9,2.9,4.7c0.5,1.8,0.6,3.6,0.4,5.5c-0.2,1.8-1,3.6-2.1,5.1c-0.5,0.7-1.2,1.4-1.9,2c-0.8,0.6-1.5,1-2.2,1.5
							l-0.1-0.9c1.1,0.4,2.1,0.8,3.2,1.3c1,0.5,2.1,1.2,2.9,2c1.7,1.7,2.8,4,3.1,6.3c0.2,1.2,0.2,2.4,0.1,3.5
							c-0.1,1.2-0.2,2.3-0.6,3.5c-0.6,2.3-2.1,4.4-4,5.8c-1.9,1.4-4.2,2.2-6.5,2.7c-2.3,0.5-4.6,0.7-6.9,0.8c-1.2,0.1-2.3,0-3.5-0.1
							l-3.4-0.3l-1.7-0.1l-1.7-0.2l-3.4-0.5c4.6,0.3,9.1,0.4,13.7,0.3c2.3-0.1,4.5-0.3,6.7-0.8c2.2-0.5,4.3-1.3,6.1-2.6
							c1.7-1.3,3.1-3.2,3.7-5.3c0.6-2.1,0.7-4.4,0.4-6.6c-0.3-2.2-1.3-4.3-2.8-5.8c-0.8-0.8-1.7-1.4-2.7-1.9c-1-0.5-2.1-0.9-3.1-1.3
							l-0.9-0.4l0.8-0.5c0.7-0.5,1.5-1,2.2-1.5c0.7-0.5,1.2-1.1,1.7-1.8c1-1.4,1.7-3,1.9-4.6c0.2-1.7,0.1-3.4-0.3-5.1
							c-0.4-1.6-1.4-3.1-2.6-4.2c-1.2-1.1-2.8-1.9-4.5-2.4c-1.6-0.5-3.4-0.7-5.1-1c-1.7-0.2-3.5-0.4-5.3-0.3L167.7,53.7z"/>
					</g>
				</g>
				<g>
					<g>
						<path class="st5" d="M172.5,92.6c1.2,0,2.4-0.1,3.5-0.2c1.2,0.1,2.3-0.1,3.4-0.3c1.1-0.3,2.1-0.7,3-1.4
							c0.8-0.7,1.4-1.7,1.7-2.7c0.5-2.1,0.2-4.7-1.5-6.1c-0.8-0.7-1.9-1.1-3-1.4c-1.1-0.4-2.2-0.7-3.4-0.9c1.2-0.2,2.4-0.2,3.6-0.1
							c1.2,0.3,2.4,0.8,3.4,1.6c1,0.9,1.6,2.1,1.8,3.3c0.2,1.2,0.2,2.5-0.1,3.7c-0.3,1.3-1,2.4-2,3.2c-1,0.8-2.2,1.3-3.4,1.6
							c-1.2,0.3-2.4,0.4-3.6,0.4C174.8,93.2,173.6,93,172.5,92.6z"/>
					</g>
				</g>
				<g>
					<g>
						<path class="st5" d="M172.5,72.3c1.1-0.2,2.2-0.3,3.2-0.5c1,0,2.1-0.2,3-0.5c0.9-0.4,1.8-0.9,2.3-1.7c0.5-0.8,0.8-1.8,0.9-2.8
							c0.1-1,0-2.1-0.4-2.9c-0.4-0.9-1.1-1.6-2-2.1c-0.9-0.5-1.9-0.7-2.9-0.8c-1-0.3-2.1-0.4-3.2-0.5c1.1-0.3,2.2-0.5,3.3-0.5
							c1.1,0.1,2.3,0.4,3.3,0.9c1,0.6,1.9,1.5,2.4,2.5c0.5,1.1,0.6,2.3,0.5,3.4c-0.1,1.1-0.4,2.3-1,3.3c-0.7,1-1.7,1.7-2.8,2.1
							c-1.1,0.4-2.2,0.6-3.4,0.6C174.6,72.7,173.5,72.5,172.5,72.3z"/>
					</g>
				</g>
			</g>
			<g>
				<g>
					<path class="st5" d="M204.8,54l1.8-0.2c0.6-0.1,1.2-0.1,1.8-0.1c0.6,0,1.2,0,1.8,0l1.8,0.1l0.3,0l0,0.3l0.2,4.6l0,4.6v9.2v18.5
						l-0.5-0.5h15.4h0.4l0.1,0.4c0.1,0.7,0.2,1.4,0.3,2.1c0,0.7,0.1,1.4,0.1,2.1l-0.1,2.1c-0.1,0.7-0.2,1.4-0.3,2.1l-0.1,0.4l-0.4,0
						l-12.4,0c-2.1,0-4.1-0.2-6.2-0.2l-6.2-0.3l6.2-0.3c2.1-0.1,4.1-0.2,6.2-0.2l12.4,0l-0.5,0.4l0.3-2l0.1-2l-0.1-2
						c-0.1-0.7-0.2-1.3-0.3-2l0.5,0.4H212h-0.5v-0.5V72.7v-9.2l0-4.6l0.2-4.6l0.3,0.3l-1.8-0.3c-0.6-0.1-1.2-0.1-1.8-0.2
						c-0.6-0.1-1.2-0.1-1.8-0.1L204.8,54z"/>
				</g>
			</g>
			<g>
				<g>
					<g>
						<path class="st5" d="M248.1,54l2.1-0.2c0.7-0.1,1.4-0.1,2.1-0.1c0.7,0,1.4,0,2.1,0.1l2.1,0.1l0.2,0l0.1,0.2
							c0.6,1.9,1.3,3.7,1.9,5.6l1.7,5.6l3.5,11.3l7,22.6l0.2,0.6l-0.6,0.1c-1.6,0.2-3.3,0.4-5,0.4c-0.8,0-1.7-0.1-2.5-0.1
							c-0.8-0.1-1.6-0.2-2.5-0.3l-0.3,0l-0.1-0.3l-2.6-9.5l0.6,0.3c-1.2,0.4-2.5,0.6-3.7,0.9c-1.2,0.3-2.5,0.4-3.8,0.4
							c-1.3,0-2.6-0.1-3.8-0.3c-1.2-0.3-2.5-0.5-3.7-0.8l0.6-0.4l-1.3,4.7c-0.5,1.6-0.9,3.1-1.4,4.7l-0.1,0.2l-0.2,0
							c-0.8,0.1-1.5,0.2-2.3,0.2c-0.8,0-1.5,0.1-2.3,0l-2.3-0.2l-2.3-0.4l2.3,0.2l2.3,0c0.8,0,1.5-0.1,2.3-0.2
							c0.8-0.1,1.5-0.2,2.2-0.4l-0.3,0.2c0.4-1.6,0.7-3.2,1.1-4.7l1.3-4.7l0.1-0.5l0.5,0.1c1.2,0.4,2.4,0.5,3.6,0.8
							c1.2,0.3,2.4,0.3,3.6,0.3c1.2,0,2.4-0.1,3.6-0.4c1.2-0.3,2.4-0.5,3.6-0.9l0.5-0.2l0.1,0.5l2.6,9.5l-0.4-0.4
							c0.8,0.1,1.6,0.2,2.4,0.3c0.8,0,1.6,0.1,2.4,0.1c1.6,0,3.2-0.2,4.8-0.4l-0.4,0.6l-7-22.6l-3.5-11.3l-1.8-5.6
							c-0.5-1.9-1-3.8-1.6-5.7l0.3,0.2l-2-0.3c-0.7-0.1-1.4-0.1-2-0.2c-0.7-0.1-1.4-0.1-2-0.1L248.1,54z"/>
					</g>
				</g>
				<g>
					<g>
						<path class="st5" d="M245,83.2c1,0.1,1.9,0.2,2.8,0.4c0.9,0.1,1.8,0.2,2.7,0.2l1.4-0.1l0.7-0.1c0.2,0,0.5-0.1,0.7-0.1
							c0.9-0.2,1.8-0.4,2.7-0.7l-0.4,0.6l-2.2-9l-1.1-4.5c-0.2-0.7-0.3-1.5-0.4-2.3c-0.1-0.8-0.2-1.5-0.2-2.3
							c0.3,0.7,0.6,1.4,0.9,2.2c0.3,0.7,0.6,1.4,0.7,2.2l1.1,4.5l2.2,9l0.1,0.5l-0.5,0.1c-0.9,0.3-1.9,0.5-2.8,0.7
							c-0.2,0-0.5,0.1-0.7,0.1l-0.7,0.1l-1.5,0.1c-1,0-2,0-2.9-0.4C246.8,84,245.9,83.7,245,83.2z"/>
					</g>
				</g>
			</g>
			<g>
				<g>
					<path class="st5" d="M286.5,55.2c3.1-1.5,6.7-2.1,10.2-2c1.7,0,3.5,0.1,5.2,0.4c1.7,0.3,3.4,0.8,5.1,1.4l0.4,0.1l0,0.4
						c-0.1,1.4-0.4,2.7-0.8,4c-0.2,0.6-0.5,1.3-0.7,1.9l-0.7,1.9l-0.2,0.4l-0.5-0.2c-1.2-0.4-2.4-0.7-3.6-1l-1.8-0.3
						c-0.6-0.1-1.2-0.1-1.9-0.1c-2.5-0.1-5,0.4-7,1.8c-2,1.3-3.5,3.5-4.2,5.8c-0.8,2.3-1,4.9-1,7.4c0,2.5,0.3,5,1.1,7.3
						c0.9,2.3,2.4,4.3,4.5,5.5c1.1,0.6,2.2,1,3.4,1.3c1.2,0.2,2.4,0.3,3.7,0.3c1.2,0,2.5-0.2,3.7-0.4l3.6-1l0.4-0.1l0.2,0.4
						c1.1,2.5,1.9,5.1,2.3,7.8l0.1,0.4l-0.4,0.1c-1,0.3-1.9,0.6-2.9,0.9l-3,0.6c-1,0.1-2,0.2-3,0.3l-3,0.1c-4,0-8.2-0.8-11.7-2.9
						c-1.8-1-3.4-2.3-4.7-3.9c-1.3-1.6-2.3-3.3-3.1-5.2c-1.5-3.7-2.1-7.8-1.9-11.8c0.1,4,0.9,7.9,2.6,11.5c0.8,1.8,1.9,3.4,3.2,4.8
						c1.3,1.4,2.8,2.7,4.5,3.6c3.4,2,7.3,2.7,11.2,2.7l2.9-0.1c1-0.1,1.9-0.2,2.9-0.3l2.9-0.6c0.9-0.3,1.9-0.6,2.8-0.9l-0.3,0.6
						c-0.4-2.6-1.2-5.2-2.3-7.6l0.6,0.3l-3.7,1c-1.3,0.3-2.6,0.4-3.9,0.4c-1.3,0-2.6-0.1-3.9-0.3c-1.3-0.3-2.6-0.7-3.7-1.4
						c-2.4-1.3-4-3.6-5-6c-0.9-2.5-1.2-5.1-1.2-7.7c0-2.6,0.3-5.2,1.1-7.7c0.8-2.5,2.4-4.8,4.6-6.3c2.2-1.5,5-2,7.6-1.9
						c0.6,0,1.3,0,1.9,0.1l1.9,0.3l1.9,0.5c0.6,0.2,1.2,0.4,1.8,0.6l-0.6,0.3l0.7-1.8c0.2-0.6,0.5-1.2,0.7-1.8
						c0.4-1.2,0.7-2.5,0.8-3.8l0.3,0.5c-1.6-0.6-3.2-1.1-4.9-1.5c-1.7-0.3-3.4-0.5-5.1-0.6C293.2,53.6,289.7,53.9,286.5,55.2z"/>
				</g>
			</g>
			<g>
				<g>
					<g>
						<path class="st5" d="M341.6,53.9l2-0.2c0.7-0.1,1.3-0.1,2-0.1c0.7,0,1.3,0,2,0c0.7,0,1.3,0.1,2,0.1l0.5,0l-0.2,0.5
							c-0.8,1.8-1.6,3.7-2.6,5.5l-2.7,5.5l-5.4,10.9l0-0.4L351,99.2l0.3,0.6l-0.7,0.1c-0.9,0.1-1.8,0.2-2.7,0.2
							c-0.9,0-1.8,0.1-2.7,0.1l-2.7-0.1c-0.9-0.1-1.8-0.2-2.7-0.3l-0.2,0l-0.1-0.2l-5.8-11.4c-0.9-1.9-1.8-3.9-2.7-5.8l-2.6-5.8
							l3.1,5.6c1,1.9,2.1,3.7,3.1,5.6l5.8,11.4l-0.4-0.3c0.9,0.1,1.7,0.2,2.6,0.3l2.7,0.1c0.9,0.1,1.8-0.1,2.7-0.1
							c0.9,0,1.8-0.1,2.6-0.2l-0.4,0.7l-11.9-23.5l-0.1-0.2l0.1-0.2l5.4-10.9l2.7-5.5c0.8-1.8,1.9-3.6,2.8-5.4l0.3,0.5
							c-0.6-0.1-1.3-0.2-1.9-0.3c-0.6-0.1-1.3-0.2-1.9-0.2C344.2,53.9,342.9,54,341.6,53.9z"/>
					</g>
				</g>
				<g>
					<g>
						<path class="st5" d="M317.7,54l1.8-0.2c0.6-0.1,1.2-0.1,1.8-0.1c0.6,0,1.2,0,1.8,0l1.8,0.1l0.4,0l0,0.5c0,3.8,0,7.5,0,11.3
							v11.3v22.6v0.4l-0.4,0.1c-0.8,0.1-1.6,0.3-2.4,0.3c-0.8,0-1.6,0-2.4,0c-1.6-0.1-3.2-0.4-4.7-0.7c1.6,0.1,3.2,0.2,4.7,0.1
							c0.8,0,1.6-0.1,2.3-0.3c0.8-0.2,1.6-0.2,2.3-0.3l-0.4,0.5V76.8V65.5c0-3.8,0-7.5,0-11.3l0.4,0.5l-1.8-0.3
							c-0.6-0.1-1.2-0.1-1.8-0.2c-0.6-0.1-1.2-0.2-1.8-0.1L317.7,54z"/>
					</g>
				</g>
			</g>
		</g>
		<g class="st2">
			<g>
				<path class="st5" d="M331.9,174.2H178.1c-2.7,0-4.8-2.2-4.8-4.8v-52.5c0-2.7,2.2-4.8,4.8-4.8h153.8c2.7,0,4.8,2.2,4.8,4.8v52.5
					C336.8,172,334.6,174.2,331.9,174.2z"/>
			</g>
		</g>
		<g class="st11">
			<g>
				<g>
					<path class="st5" d="M176,147.2l-0.5-27.5l0-1.7l0-0.4c0-0.2,0-0.4,0.1-0.5c0.1-0.4,0.3-0.7,0.5-1c0.9-1.1,2.1-1.5,3.3-1.7
						c0.6-0.1,1.2-0.1,1.8-0.1h1.7h3.4H200h55h55h13.7h3.4h1.7c0.6,0,1.2,0,1.8,0.1c1.2,0.2,2.4,0.6,3.3,1.7c0.2,0.3,0.4,0.6,0.5,1
						c0.1,0.2,0.1,0.4,0.1,0.5l0,0.4l0,1.7l-0.5,27.5l-0.5-27.5l0-1.7l0-0.4c0-0.1,0-0.2,0-0.3c0-0.2-0.1-0.4-0.3-0.6
						c-0.6-0.7-1.7-1.1-2.7-1.3c-1-0.2-2.2-0.1-3.4-0.1h-3.4H310h-55h-55h-13.7h-3.4c-1.1,0-2.3-0.1-3.4,0.1c-1,0.2-2.1,0.6-2.7,1.3
						c-0.1,0.2-0.2,0.4-0.3,0.6c0,0.1,0,0.2,0,0.3l0,0.4l0,1.7L176,147.2z"/>
				</g>
			</g>
		</g>
		<g>
			<g>
				<path class="st1" d="M324.3,151.6H185.7c-2.5,0-4.5-2-4.5-4.5v-7.9c0-2.5,2-4.5,4.5-4.5h138.5c2.5,0,4.5,2,4.5,4.5v7.9
					C328.8,149.6,326.8,151.6,324.3,151.6z"/>
			</g>
		</g>
		<g class="st12">
			<defs>
				<filter id="Adobe_OpacityMaskFilter_1_" filterUnits="userSpaceOnUse" x="185.3" y="119" width="139.8" height="49">
					<feFlood  style="flood-color:white;flood-opacity:1" result="back"/>
					<feBlend  in="SourceGraphic" in2="back" mode="normal"/>
				</filter>
			</defs>
			<mask maskUnits="userSpaceOnUse" x="185.3" y="119" width="139.8" height="49" id="SVGID_4_">
				<g class="st13">
					<image style="overflow:visible;" width="145" height="54" xlink:href="7B631B1D.jpg"  transform="matrix(1 0 0 1 183 116)">
					</image>
				</g>
			</mask>
			<g class="st14">
				<g>
					<g>
						<ellipse class="st15" cx="255.3" cy="143.5" rx="69.9" ry="24.5"/>
					</g>
				</g>
			</g>
		</g>
		<g>
			<g>
				<path class="st9" d="M190.7,154.7v-26.9h19.2v3.8h-15.3v7.7h11.5v3.8h-11.5v11.5H190.7z"/>
			</g>
			<g>
				<path class="st9" d="M213.7,154.7v-26.9h15.3v3.8h-11.5v7.7h11.5v3.8h-3.8v3.8h-3.8v-3.8h-3.8v11.5H213.7z M225.3,150.9V147h3.8
					v3.8H225.3z M229.1,139.4v-7.7h3.8v7.7H229.1z M229.1,154.7v-3.8h3.8v3.8H229.1z"/>
			</g>
			<g>
				<path class="st9" d="M236.8,154.7v-3.8h7.7v-19.2h-7.7v-3.8h19.2v3.8h-7.7v19.2h7.7v3.8H236.8z"/>
			</g>
			<g>
				<path class="st9" d="M259.8,154.7v-26.9h15.3v3.8h-11.5v19.2h11.5v3.8H259.8z M275.1,150.9v-19.2h3.8v19.2H275.1z"/>
			</g>
			<g>
				<path class="st9" d="M282.8,154.7v-23h3.8v7.7h11.5v-7.7h3.8v23h-3.8v-11.5h-11.5v11.5H282.8z M286.6,131.7v-3.8h11.5v3.8H286.6
					z"/>
			</g>
			<g>
				<path class="st9" d="M305.8,131.7v-3.8h3.8v3.8H305.8z M309.6,135.5v-3.8h3.8v3.8H309.6z M313.5,154.7v-19.2h3.8v19.2H313.5z
					 M317.3,135.5v-3.8h3.8v3.8H317.3z M321.2,131.7v-3.8h3.8v3.8H321.2z"/>
			</g>
		</g>
		<g>
			<g>
				<path class="st5" d="M136.4,317L136.4,317c0-3.2,2.5-5.5,5.8-5.5c1.8,0,3.3,0.6,4.4,1.6l-2,2.4c-0.7-0.6-1.5-0.9-2.3-0.9
					c-1.4,0-2.4,1-2.4,2.5v0c0,1.5,1,2.5,2.5,2.5c0.6,0,0.9-0.1,1.2-0.2v-1h-1.8v-2.3h5.1v4.9c-1.1,0.9-2.7,1.6-4.6,1.6
					C139,322.5,136.4,320.3,136.4,317z"/>
			</g>
			<g>
				<path class="st5" d="M148,311.8h5.1c1.9,0,3,0.5,3.8,1.2c0.6,0.6,1,1.4,1,2.5v0c0,1.5-0.8,2.6-2.1,3.2l2.4,3.6h-4l-2-3h-0.8v3
					H148V311.8z M153,316.8c0.8,0,1.3-0.4,1.3-1v0c0-0.7-0.5-1-1.3-1h-1.5v2.1H153z"/>
			</g>
			<g>
				<path class="st5" d="M162,311.7h3.5l4.4,10.6h-3.8l-0.6-1.4h-3.7l-0.5,1.4h-3.8L162,311.7z M164.6,318.4l-1-2.6l-1,2.6H164.6z"
					/>
			</g>
			<g>
				<path class="st5" d="M170.3,311.8h5.9c1.5,0,2.4,0.3,3,0.9c0.4,0.4,0.6,0.9,0.6,1.6v0c0,1.2-0.7,2-1.9,2.4
					c1.3,0.4,2.2,1.1,2.2,2.6v0c0,1.7-1.4,2.9-4,2.9h-5.8V311.8z M175.3,315.9c0.8,0,1.1-0.3,1.1-0.7v0c0-0.5-0.4-0.7-1.1-0.7h-1.5
					v1.5H175.3z M175.5,319.6c0.8,0,1.2-0.3,1.2-0.8v0c0-0.4-0.4-0.8-1.1-0.8h-1.8v1.6H175.5z"/>
			</g>
			<g>
				<path class="st5" d="M184.7,311.8h5.9c1.5,0,2.4,0.3,3,0.9c0.4,0.4,0.6,0.9,0.6,1.6v0c0,1.2-0.8,2-1.9,2.4
					c1.3,0.4,2.2,1.1,2.2,2.6v0c0,1.7-1.4,2.9-4,2.9h-5.8V311.8z M189.7,315.9c0.8,0,1.1-0.3,1.1-0.7v0c0-0.5-0.4-0.7-1.1-0.7h-1.5
					v1.5H189.7z M189.9,319.6c0.8,0,1.2-0.3,1.2-0.8v0c0-0.4-0.4-0.8-1.1-0.8h-1.8v1.6H189.9z"/>
			</g>
			<g>
				<path class="st5" d="M195.4,311.8h9v2.9h-5.5v1.1h5.1v2.5h-5.1v1.1h5.6v2.9h-9V311.8z"/>
			</g>
			<g>
				<path class="st5" d="M205.3,311.8h8.8v3h-5.3v1.3h4.9v2.7h-4.9v3.4h-3.5V311.8z"/>
			</g>
			<g>
				<path class="st5" d="M214.7,317L214.7,317c0-3.1,2.5-5.5,5.7-5.5c3.2,0,5.7,2.4,5.7,5.4v0c0,3-2.5,5.5-5.7,5.5
					S214.7,320.1,214.7,317z M222.6,317L222.6,317c0-1.3-0.9-2.4-2.2-2.4c-1.3,0-2.2,1.1-2.2,2.3v0c0,1.2,0.9,2.4,2.2,2.4
					C221.8,319.4,222.6,318.3,222.6,317z"/>
			</g>
			<g>
				<path class="st5" d="M227.1,311.8h5.1c1.9,0,3,0.5,3.8,1.2c0.6,0.6,1,1.4,1,2.5v0c0,1.5-0.8,2.6-2.1,3.2l2.4,3.6h-4l-2-3h-0.8v3
					h-3.5V311.8z M232.2,316.8c0.8,0,1.3-0.4,1.3-1v0c0-0.7-0.5-1-1.3-1h-1.5v2.1H232.2z"/>
			</g>
			<g>
				<path class="st5" d="M237.9,311.8h9v2.9h-5.5v1.1h5.1v2.5h-5.1v1.1h5.6v2.9h-9V311.8z"/>
			</g>
			<g>
				<path class="st5" d="M254.3,314.7h-3.1v-3h9.7v3h-3.1v7.5h-3.5V314.7z"/>
			</g>
			<g>
				<path class="st5" d="M261.8,311.8h3.5v10.5h-3.5V311.8z"/>
			</g>
			<g>
				<path class="st5" d="M266.5,311.8h3.7l2.3,3.7l2.3-3.7h3.7v10.5h-3.5v-5.2l-2.4,3.7h-0.1l-2.4-3.7v5.2h-3.4V311.8z"/>
			</g>
			<g>
				<path class="st5" d="M279.5,311.8h9v2.9H283v1.1h5.1v2.5H283v1.1h5.6v2.9h-9V311.8z"/>
			</g>
			<g>
				<path class="st5" d="M293.3,311.8h5.1c1.9,0,3,0.5,3.8,1.2c0.6,0.6,1,1.4,1,2.5v0c0,1.5-0.8,2.6-2.1,3.2l2.4,3.6h-4l-2-3h-0.8v3
					h-3.5V311.8z M298.3,316.8c0.8,0,1.3-0.4,1.3-1v0c0-0.7-0.5-1-1.3-1h-1.5v2.1H298.3z"/>
			</g>
			<g>
				<path class="st5" d="M303.9,317.6v-5.8h3.6v5.7c0,1.3,0.7,1.9,1.6,1.9c0.9,0,1.6-0.5,1.6-1.8v-5.8h3.6v5.7c0,3.6-2.1,5-5.2,5
					S303.9,321,303.9,317.6z"/>
			</g>
			<g>
				<path class="st5" d="M315.4,311.8h3.3l3.7,4.6v-4.6h3.5v10.5h-3.1l-3.9-4.8v4.8h-3.5V311.8z"/>
			</g>
			<g>
				<path class="st5" d="M326.3,320.7l1.9-2.2c1.1,0.9,2.4,1.2,3.7,1.2c0.6,0,0.9-0.2,0.9-0.5v0c0-0.3-0.3-0.5-1.5-0.7
					c-2.4-0.5-4.4-1.2-4.4-3.4v0c0-2,1.6-3.5,4.5-3.5c2,0,3.5,0.5,4.7,1.4l-1.7,2.4c-1-0.7-2.2-1-3.2-1c-0.5,0-0.8,0.2-0.8,0.4v0
					c0,0.3,0.3,0.5,1.4,0.7c2.7,0.5,4.5,1.3,4.5,3.4v0c0,2.2-1.8,3.6-4.6,3.6C329.5,322.5,327.6,321.9,326.3,320.7z"/>
			</g>
			<g>
				<path class="st5" d="M340.6,317L340.6,317c0-3.1,2.5-5.5,5.7-5.5c3.2,0,5.7,2.4,5.7,5.4v0c0,3-2.5,5.5-5.7,5.5
					C343.1,322.5,340.6,320.1,340.6,317z M348.6,317L348.6,317c0-1.3-0.9-2.4-2.2-2.4c-1.3,0-2.2,1.1-2.2,2.3v0
					c0,1.2,0.9,2.4,2.2,2.4C347.7,319.4,348.6,318.3,348.6,317z"/>
			</g>
			<g>
				<path class="st5" d="M353,317.6v-5.8h3.6v5.7c0,1.3,0.7,1.9,1.6,1.9c0.9,0,1.6-0.5,1.6-1.8v-5.8h3.6v5.7c0,3.6-2.1,5-5.2,5
					S353,321,353,317.6z"/>
			</g>
			<g>
				<path class="st5" d="M367.2,314.7h-3.1v-3h9.7v3h-3.1v7.5h-3.5V314.7z"/>
			</g>
		</g>
		<g class="st16">
			<g>
				<path class="st5" d="M414.3,286H95.7c-0.4,0-0.7-0.3-0.7-0.7v-27.8c0-0.4,0.3-0.7,0.7-0.7h318.5c0.4,0,0.7,0.3,0.7,0.7v27.8
					C415,285.7,414.7,286,414.3,286z"/>
			</g>
		</g>
		<g>
			<g>
				<path class="st5" d="M177.5,233.7h4.9l3,4.9l3-4.9h4.9v14h-4.7v-6.9l-3.2,5h-0.1l-3.2-5v6.9h-4.6V233.7z"/>
			</g>
			<g>
				<path class="st5" d="M194.5,240.7L194.5,240.7c0-4.1,3.3-7.3,7.7-7.3c4.3,0,7.6,3.2,7.6,7.3v0c0,4.1-3.3,7.3-7.7,7.3
					C197.8,248,194.5,244.8,194.5,240.7z M205.1,240.7L205.1,240.7c0-1.7-1.1-3.2-2.9-3.2c-1.8,0-2.9,1.5-2.9,3.1v0
					c0,1.7,1.1,3.2,2.9,3.2C204,243.8,205.1,242.4,205.1,240.7z"/>
			</g>
			<g>
				<path class="st5" d="M211.1,233.7h4.4l5,6.2v-6.2h4.6v14h-4.2l-5.2-6.5v6.5h-4.6V233.7z"/>
			</g>
			<g>
				<path class="st5" d="M230.3,237.6h-4.1v-4h12.9v4H235v10h-4.7V237.6z"/>
			</g>
			<g>
				<path class="st5" d="M240.1,233.7h4.7v4.9h4.3v-4.9h4.7v14h-4.7v-5h-4.3v5h-4.7V233.7z"/>
			</g>
			<g>
				<path class="st5" d="M255.4,233.7h4.7v10h6.6v4h-11.3V233.7z"/>
			</g>
			<g>
				<path class="st5" d="M269.2,242.7l-5.3-9h5.2l2.4,4.6l2.4-4.6h5.2l-5.3,9v5h-4.7V242.7z"/>
			</g>
			<g>
				<path class="st5" d="M290.1,247.7c-2.2-0.2-4.4-0.9-6.1-2.1l2-3c1.5,1,2.9,1.5,4.2,1.7v-1.7c-3.5-0.7-5.4-1.8-5.4-4.4v0
					c0-2.5,1.8-4.3,5.4-4.5v-1.1h2.1v1.2c1.9,0.2,3.4,0.8,4.7,1.6l-1.9,3c-0.9-0.6-1.9-1-2.9-1.2v1.6c3.3,0.7,5.2,1.7,5.2,4.4v0
					c0,2.6-2.1,4.2-5.2,4.4v2h-2.1V247.7z M290.3,238.6V237c-1,0-1.3,0.3-1.3,0.7v0C289,238.2,289.3,238.4,290.3,238.6z
					 M292.1,242.8v1.6c0.9,0,1.3-0.3,1.3-0.8v0C293.4,243.2,293.2,242.9,292.1,242.8z"/>
			</g>
			<g>
				<path class="st5" d="M300.6,237.7l-2.3,0.5l-0.8-3.5l4.2-1.1h3.5v14.1h-4.6V237.7z"/>
			</g>
			<g>
				<path class="st5" d="M306.3,243.8L306.3,243.8c0-1.7,1-2.8,2.5-3.4c-1.1-0.5-2-1.5-2-3v0c0-2.3,2.3-3.9,5.6-3.9
					c3.3,0,5.6,1.6,5.6,3.9v0c0,1.5-1,2.5-2,3c1.4,0.6,2.5,1.6,2.5,3.4v0c0,2.4-2.5,4.1-6.1,4.1C308.8,248,306.3,246.3,306.3,243.8z
					 M314,243.3L314,243.3c0-0.8-0.6-1.4-1.6-1.4c-1,0-1.6,0.6-1.6,1.4v0c0,0.7,0.5,1.4,1.6,1.4C313.5,244.7,314,244,314,243.3z
					 M313.9,238L313.9,238c0-0.7-0.6-1.4-1.5-1.4c-0.9,0-1.5,0.6-1.5,1.3v0c0,0.8,0.6,1.4,1.5,1.4
					C313.3,239.3,313.9,238.7,313.9,238z"/>
			</g>
			<g>
				<path class="st5" d="M319.3,240.7L319.3,240.7c0-3.9,2.5-7.3,6.8-7.3c4.2,0,6.7,3.4,6.7,7.3v0c0,3.9-2.5,7.3-6.8,7.3
					C321.7,248,319.3,244.6,319.3,240.7z M328.1,240.7L328.1,240.7c0-2-0.9-3.3-2.1-3.3c-1.3,0-2.1,1.3-2.1,3.2v0
					c0,1.9,0.9,3.2,2.1,3.2C327.3,243.9,328.1,242.6,328.1,240.7z"/>
			</g>
		</g>
		<g>
			<g>
				<path class="st9" d="M105.2,263.2h4.4l5,6.2v-6.2h4.6v14H115l-5.2-6.5v6.5h-4.6V263.2z"/>
			</g>
			<g>
				<path class="st9" d="M120.5,270.3L120.5,270.3c0-4.1,3.3-7.3,7.7-7.3c4.3,0,7.6,3.2,7.6,7.3v0c0,4.1-3.3,7.3-7.7,7.3
					C123.8,277.5,120.5,274.3,120.5,270.3z M131,270.3L131,270.3c0-1.7-1.1-3.2-2.9-3.2c-1.8,0-2.9,1.5-2.9,3.1v0
					c0,1.7,1.1,3.2,2.9,3.2C129.9,273.4,131,271.9,131,270.3z"/>
			</g>
			<g>
				<path class="st9" d="M135.4,263.2h4.9l2,6.7l2.3-6.8h4l2.3,6.8l2-6.7h4.8l-4.6,14.1H149l-2.5-7l-2.5,7H140L135.4,263.2z"/>
			</g>
			<g>
				<path class="st9" d="M156,278.9c1.3-0.2,2-0.8,2-1.8h-1.8v-4.6h4.6v3.7c0,3.3-1.9,4.3-4.5,4.4L156,278.9z"/>
			</g>
			<g>
				<path class="st9" d="M166.9,270.3L166.9,270.3c0-4.1,3.3-7.3,7.7-7.3c4.3,0,7.6,3.2,7.6,7.3v0c0,4.1-3.3,7.3-7.7,7.3
					C170.2,277.5,166.9,274.3,166.9,270.3z M177.4,270.3L177.4,270.3c0-1.7-1.1-3.2-2.9-3.2c-1.8,0-2.9,1.5-2.9,3.1v0
					c0,1.7,1.1,3.2,2.9,3.2C176.3,273.4,177.4,271.9,177.4,270.3z"/>
			</g>
			<g>
				<path class="st9" d="M183.4,263.2h4.4l5,6.2v-6.2h4.6v14h-4.2l-5.2-6.5v6.5h-4.6V263.2z"/>
			</g>
			<g>
				<path class="st9" d="M199,263.2h4.7v10h6.6v4H199V263.2z"/>
			</g>
			<g>
				<path class="st9" d="M212.9,272.3l-5.3-9h5.2l2.4,4.6l2.4-4.6h5.2l-5.3,9v5h-4.7V272.3z"/>
			</g>
			<g>
				<path class="st9" d="M233.3,263.1h4.6l5.9,14.1h-5.1l-0.7-1.9h-4.9l-0.7,1.9h-5L233.3,263.1z M236.8,272l-1.3-3.4l-1.3,3.4
					H236.8z"/>
			</g>
			<g>
				<path class="st9" d="M246.2,267.2h-4.1v-4H255v4h-4.1v10h-4.7V267.2z"/>
			</g>
			<g>
				<path class="st9" d="M266.5,277.2c-2.2-0.2-4.4-0.9-6.1-2.1l2-3c1.5,1,2.9,1.5,4.2,1.7v-1.7c-3.5-0.7-5.4-1.8-5.4-4.4v0
					c0-2.5,1.8-4.3,5.4-4.5v-1.1h2.1v1.2c1.9,0.2,3.4,0.8,4.7,1.6l-1.9,3c-0.9-0.6-1.9-1-2.9-1.2v1.6c3.3,0.7,5.2,1.7,5.2,4.4v0
					c0,2.6-2.1,4.2-5.2,4.4v2h-2.1V277.2z M266.7,268.1v-1.6c-1,0-1.3,0.3-1.3,0.7v0C265.3,267.7,265.6,268,266.7,268.1z
					 M268.5,272.3v1.6c0.9,0,1.3-0.3,1.3-0.8v0C269.8,272.7,269.5,272.5,268.5,272.3z"/>
			</g>
			<g>
				<path class="st9" d="M281.5,274.8h-6.7l-0.8-3.3l6.8-8.4h5.2v8.4h1.7v3.3H286v2.4h-4.5V274.8z M281.5,271.6v-3.7l-3,3.7H281.5z"
					/>
			</g>
			<g>
				<path class="st9" d="M288.3,275.9l2-3c0.9,0.7,1.9,1.1,2.9,1.1c1.5,0,2.3-0.9,2.5-2.7c-0.8,0.8-1.8,1.3-3.1,1.3
					c-2.4,0-4.4-1.7-4.4-4.3v0c0-3.3,2.6-5.3,5.8-5.3c2.2,0,3.5,0.7,4.6,1.7c1,1,1.7,2.7,1.7,5.1v0c0,4.6-2.4,7.7-6.8,7.7
					C291.3,277.5,289.7,276.9,288.3,275.9z M295.8,268L295.8,268c0-1-0.6-1.7-1.6-1.7c-0.9,0-1.5,0.7-1.5,1.7v0
					c0,0.9,0.6,1.6,1.6,1.6C295.2,269.6,295.8,268.9,295.8,268z"/>
			</g>
			<g>
				<path class="st9" d="M306.7,263.2h11.7v4h-7v1.8h6.5v3.6h-6.5v4.6h-4.7V263.2z"/>
			</g>
			<g>
				<path class="st9" d="M319.2,270.3L319.2,270.3c0-4.1,3.3-7.3,7.7-7.3c4.3,0,7.6,3.2,7.6,7.3v0c0,4.1-3.3,7.3-7.7,7.3
					C322.5,277.5,319.2,274.3,319.2,270.3z M329.8,270.3L329.8,270.3c0-1.7-1.1-3.2-2.9-3.2c-1.8,0-2.9,1.5-2.9,3.1v0
					c0,1.7,1.1,3.2,2.9,3.2C328.7,273.4,329.8,271.9,329.8,270.3z"/>
			</g>
			<g>
				<path class="st9" d="M335.8,263.2h6.8c2.5,0,4.1,0.6,5,1.6c0.8,0.8,1.3,1.9,1.3,3.3v0c0,2-1.1,3.5-2.8,4.3l3.3,4.8h-5.3l-2.6-4
					h-1v4h-4.7V263.2z M342.5,269.9c1.1,0,1.8-0.5,1.8-1.4v0c0-0.9-0.7-1.3-1.8-1.3h-2v2.7H342.5z"/>
			</g>
			<g>
				<path class="st9" d="M355.2,263.2h4.7v10h6.6v4h-11.3V263.2z"/>
			</g>
			<g>
				<path class="st9" d="M367.5,263.2h4.7v14h-4.7V263.2z"/>
			</g>
			<g>
				<path class="st9" d="M373.8,263.2h11.7v4h-7v1.8h6.5v3.6h-6.5v4.6h-4.7V263.2z"/>
			</g>
			<g>
				<path class="st9" d="M386.6,263.2h11.9v3.8h-7.3v1.4h6.8v3.4h-6.8v1.5h7.4v3.8h-12V263.2z"/>
			</g>
			<g>
				<path class="st9" d="M399.8,266.2v-3h5.1v3l-1.4,6.6h-2.3L399.8,266.2z M400,273.6h4.6v3.6H400V273.6z"/>
			</g>
		</g>
	</g>
</g>
</svg>
