<svg width="300" height="65" viewBox="0 0 300 65" fill="none" xmlns="http://www.w3.org/2000/svg">
<g clip-path="url(#clip0_468_288)">
<path fill-rule="evenodd" clip-rule="evenodd" d="M12.6001 0.599609H287.4C294 0.599609 299.4 5.99961 299.4 12.5996V52.1996C299.4 58.7996 294 64.1996 287.4 64.1996H12.6001C6.0001 64.1996 0.600098 58.7996 0.600098 52.1996V12.5996C0.600098 5.99961 6.0001 0.599609 12.6001 0.599609Z" fill="white"/>
<path d="M287.4 64.8H12.6C5.64 64.8 0 59.16 0 52.2V12.6C0 5.64 5.64 0 12.6 0H287.4C294.36 0 300 5.64 300 12.6V52.2C300 59.16 294.36 64.8 287.4 64.8ZM12.6 1.2C6.36 1.2 1.2 6.36 1.2 12.6V52.2C1.2 58.44 6.36 63.6 12.6 63.6H287.4C293.64 63.6 298.8 58.44 298.8 52.2V12.6C298.8 6.36 293.64 1.2 287.4 1.2H12.6Z" fill="#FD9B45"/>
<path d="M41.3999 18.84C41.3999 16.08 43.5599 14.04 46.3199 14.04C47.9999 14.04 49.0799 14.52 50.0399 15.36L48.4799 17.16C47.7599 16.56 47.1599 16.32 46.1999 16.32C44.8799 16.32 43.7999 17.4 43.7999 18.84C43.7999 20.28 44.8799 21.36 46.3199 21.36C46.9199 21.36 47.3999 21.24 47.7599 21V19.92H45.9599V18H50.1599V22.2C49.1999 23.04 47.8799 23.64 46.1999 23.64C43.5599 23.64 41.3999 21.72 41.3999 18.84Z" fill="black"/>
<path d="M51.96 14.2803H59.4V16.4403H54.48V17.8803H58.92V19.9203H54.48V21.3603H59.4V23.5203H51.96V14.2803Z" fill="black"/>
<path d="M62.9997 16.4402H60.2397V14.1602H68.3997V16.4402H65.6397V23.4002H63.1197V16.4402H62.9997Z" fill="black"/>
<path d="M73.0801 14.2803H80.5201V16.4403H75.6001V17.8803H80.0401V19.9203H75.6001V21.3603H80.5201V23.5203H73.0801V14.2803Z" fill="black"/>
<path d="M84.3601 18.7202L81.3601 14.1602H84.3601L86.0401 16.8002L87.7201 14.1602H90.6001L87.6001 18.7202L90.7201 23.4002H87.6001L85.8001 20.6402L84.0001 23.4002H81.1201L84.3601 18.7202Z" fill="black"/>
<path d="M90.6001 18.84C90.6001 16.08 92.6401 14.04 95.5201 14.04C97.4401 14.04 98.6401 14.88 99.4801 15.96L97.5601 17.4C97.0801 16.8 96.4801 16.32 95.5201 16.32C94.2001 16.32 93.3601 17.4 93.3601 18.72C93.3601 20.16 94.3201 21.24 95.5201 21.24C96.4801 21.24 97.0801 20.76 97.5601 20.16L99.4801 21.48C98.6401 22.68 97.4401 23.52 95.4001 23.52C92.6401 23.64 90.6001 21.6 90.6001 18.84Z" fill="black"/>
<path d="M100.56 14.2803H103.08V23.5203H100.56V14.2803Z" fill="black"/>
<path d="M107.04 16.4402H104.28V14.1602H112.44V16.4402H109.68V23.4002H107.16V16.4402H107.04Z" fill="black"/>
<path d="M113.64 14.2803H116.16V23.5203H113.64V14.2803Z" fill="black"/>
<path d="M117.84 14.2803H120.24L124.08 19.2003V14.2803H126.6V23.5203H124.32L120.36 18.4803V23.5203H117.84V14.2803Z" fill="black"/>
<path d="M127.92 18.84C127.92 16.08 130.08 14.04 132.84 14.04C134.52 14.04 135.6 14.52 136.56 15.36L135 17.16C134.28 16.56 133.68 16.32 132.72 16.32C131.4 16.32 130.32 17.4 130.32 18.84C130.32 20.28 131.4 21.36 132.84 21.36C133.44 21.36 133.92 21.24 134.28 21V19.92H132.48V18H136.68V22.2C135.72 23.04 134.4 23.64 132.72 23.64C130.08 23.64 127.92 21.72 127.92 18.84Z" fill="black"/>
<path d="M142.68 14.2803H145.2V21.2403H149.64V23.5203H142.56V14.2803H142.68Z" fill="#FD9B45"/>
<path d="M150.84 14.2803H153.36V23.5203H150.84V14.2803Z" fill="#FD9B45"/>
<path d="M155.16 14.2803H162.6V16.5603H157.8V18.0003H162.12V20.1603H157.8V23.5203H155.28V14.2803H155.16Z" fill="#FD9B45"/>
<path d="M163.68 14.2803H171.12V16.4403H166.2V17.8803H170.64V19.9203H166.2V21.3603H171.12V23.5203H163.68V14.2803Z" fill="#FD9B45"/>
<path d="M174.72 16.4402H171.96V14.1602H180.12V16.4402H177.36V23.4002H174.84V16.4402H174.72Z" fill="#FD9B45"/>
<path d="M181.2 14.2803H183.72V23.5203H181.2V14.2803Z" fill="#FD9B45"/>
<path d="M185.52 14.2803H188.28L190.44 17.8803L192.6 14.2803H195.36V23.5203H192.84V18.2403L190.44 21.8403L188.04 18.2403V23.5203H185.52V14.2803Z" fill="#FD9B45"/>
<path d="M196.92 14.2803H204.36V16.4403H199.44V17.8803H203.88V19.9203H199.44V21.3603H204.36V23.5203H196.92V14.2803Z" fill="#FD9B45"/>
<path d="M209.52 14.2803H213.12C216.48 14.2803 218.28 16.2003 218.28 18.8403C218.28 21.4803 216.36 23.5203 213 23.5203H209.52V14.2803ZM213.12 21.2403C214.68 21.2403 215.64 20.4003 215.64 18.9603C215.64 17.5203 214.68 16.6803 213.12 16.6803H212.04V21.3603H213.12V21.2403Z" fill="black"/>
<path d="M219.6 14.2803H227.04V16.4403H222.12V17.8803H226.56V19.9203H222.12V21.3603H227.04V23.5203H219.6V14.2803Z" fill="black"/>
<path d="M231.6 14.1602H234.12L238.08 23.5202H235.2L234.48 21.8402H230.88L230.28 23.5202H227.64L231.6 14.1602ZM233.76 19.8002L232.68 17.1602L231.6 19.8002H233.76Z" fill="black"/>
<path d="M238.8 14.2803H241.32V21.2403H245.76V23.5203H238.8V14.2803Z" fill="black"/>
<path d="M246.24 22.0802L247.68 20.4002C248.64 21.1202 249.6 21.4802 250.68 21.4802C251.4 21.4802 251.76 21.2402 251.76 20.8802C251.76 20.5202 251.4 20.2802 250.2 20.0402C248.28 19.5602 246.72 19.0802 246.72 17.1602C246.72 15.4802 248.04 14.1602 250.32 14.1602C251.88 14.1602 253.08 14.6402 254.16 15.3602L252.84 17.1602C252 16.5602 251.04 16.2002 250.2 16.2002C249.6 16.2002 249.24 16.4402 249.24 16.8002C249.24 17.2802 249.6 17.4002 250.8 17.6402C252.96 18.1202 254.28 18.8402 254.28 20.5202C254.28 22.4402 252.84 23.5202 250.56 23.5202C249 23.6402 247.44 23.1602 246.24 22.0802Z" fill="black"/>
<path d="M255.48 15.3603V14.2803H258.36V15.3603L257.64 20.5203H256.32L255.48 15.3603ZM255.6 21.2403H258.24V23.5203H255.6V21.2403Z" fill="black"/>
<path d="M238.2 52.5604H61.0799C60.7199 52.5604 60.3599 52.2004 60.3599 51.8404V31.0804C60.3599 30.7204 60.7199 30.3604 61.0799 30.3604H238.2C238.56 30.3604 238.92 30.7204 238.92 31.0804V51.8404C238.92 52.2004 238.68 52.5604 238.2 52.5604Z" fill="#FD9B45"/>
<path d="M69.48 36.2402H72.24V43.9202H77.16V46.3202H69.48V36.2402Z" fill="black"/>
<path d="M78.3599 36.2402H81.1199V46.3202H78.3599V36.2402Z" fill="black"/>
<path d="M83.04 36.2402H86.04L88.44 40.2002L90.84 36.2402H93.84V46.3202H91.08V40.5602L88.44 44.4002L85.92 40.4402V46.2002H83.16V36.2402H83.04Z" fill="black"/>
<path d="M95.6401 36.2402H98.4001V46.3202H95.6401V36.2402Z" fill="black"/>
<path d="M102.72 38.6402H99.7197V36.2402H108.6V38.6402H105.6V46.3202H102.84V38.6402H102.72Z" fill="black"/>
<path d="M109.8 36.2402H117.96V38.6402H112.68V40.2002H117.48V42.3602H112.68V43.9202H118.08V46.3202H109.92V36.2402H109.8Z" fill="black"/>
<path d="M119.4 36.2402H123.24C126.84 36.2402 128.88 38.2802 128.88 41.1602C128.88 44.0402 126.72 46.2002 123.12 46.2002H119.28V36.2402H119.4ZM123.24 43.8002C124.92 43.8002 126 42.8402 126 41.2802C126 39.7202 124.92 38.7602 123.24 38.7602H122.16V43.9202H123.24V43.8002Z" fill="black"/>
<path d="M136.8 38.6402H133.8V36.2402H142.68V38.6402H139.68V46.3202H136.8V38.6402Z" fill="black"/>
<path d="M143.88 36.2402H146.64V46.3202H143.88V36.2402Z" fill="black"/>
<path d="M148.56 36.2402H151.56L153.96 40.2002L156.36 36.2402H159.36V46.3202H156.6V40.5602L154.08 44.5202L151.56 40.5602V46.3202H148.8V36.2402H148.56Z" fill="black"/>
<path d="M161.04 36.2402H169.2V38.6402H163.92V40.2002H168.72V42.3602H163.92V43.9202H169.32V46.3202H161.16V36.2402H161.04Z" fill="black"/>
<path d="M174.36 41.28C174.36 38.4 176.64 36 179.76 36C182.88 36 185.16 38.28 185.16 41.16C185.16 44.04 182.88 46.44 179.76 46.44C176.64 46.44 174.36 44.16 174.36 41.28ZM182.28 41.28C182.28 39.84 181.2 38.52 179.64 38.52C178.08 38.52 177.12 39.72 177.12 41.16C177.12 42.6 178.2 43.92 179.64 43.92C181.32 43.92 182.28 42.72 182.28 41.28Z" fill="black"/>
<path d="M186.6 36.2402H194.64V38.6402H189.36V40.3202H194.16V42.6002H189.36V46.2002H186.6V36.2402Z" fill="black"/>
<path d="M195.96 36.2402H204V38.6402H198.72V40.3202H203.52V42.6002H198.72V46.2002H195.96V36.2402Z" fill="black"/>
<path d="M205.32 36.2402H213.48V38.6402H208.2V40.2002H213V42.3602H208.2V43.9202H213.6V46.3202H205.44V36.2402H205.32Z" fill="black"/>
<path d="M214.92 36.2402H219.72C221.28 36.2402 222.36 36.6002 222.96 37.3202C223.56 37.9202 223.8 38.6402 223.8 39.7202C223.8 41.2802 222.96 42.2402 221.76 42.8402L224.16 46.3202H220.92L218.88 43.3202H217.68V46.3202H214.92V36.2402ZM219.6 41.0402C220.56 41.0402 221.04 40.5602 221.04 39.8402C221.04 39.0002 220.44 38.6402 219.48 38.6402H217.68V41.0402H219.6Z" fill="black"/>
<path d="M225.12 37.4402V36.2402H228.24V37.4402L227.4 42.9602H225.96L225.12 37.4402ZM225.24 43.8002H228.12V46.2002H225.24V43.8002Z" fill="black"/>
</g>
<defs>
<clipPath id="clip0_468_288">
<rect width="300" height="64.8" fill="white"/>
</clipPath>
</defs>
</svg>
